<svg xmlns="http://www.w3.org/2000/svg" width="445.2" height="111.4173087433997" viewBox="0 0 369.89473684210526 92.57115026346682" class="looka-1j8o68f"><defs id="SvgjsDefs2274"/><g id="SvgjsG2275" featurekey="xG21Y3-0" transform="matrix(0.9800467789295975,0,0,0.9800467789295975,-3.6296217367911874,-1.5278929433055695)" fill="#571a1a"><path xmlns="http://www.w3.org/2000/svg" d="M14.257,65.774c4.191,9.445,11.735,16.402,20.631,20.071l13.931-34.924L14.257,65.774z M20.294,69.357  c-0.836-1.946,0.063-4.201,2.01-5.038c1.947-0.836,4.202,0.063,5.039,2.009c0.837,1.947-0.063,4.203-2.01,5.039  C23.386,72.204,21.13,71.305,20.294,69.357z M34.255,79.309c-1.946,0.837-4.202-0.062-5.038-2.01  c-0.836-1.946,0.063-4.201,2.01-5.037c1.946-0.837,4.202,0.062,5.038,2.009C37.102,76.217,36.202,78.473,34.255,79.309z   M37.428,67.26c-1.946,0.837-4.202-0.062-5.038-2.01c-0.836-1.946,0.063-4.202,2.009-5.038c1.947-0.837,4.203,0.063,5.039,2.01  S39.375,66.424,37.428,67.26z"/><path xmlns="http://www.w3.org/2000/svg" d="M11.821,35.463l-5.004-1.996C2.675,44.157,2.508,56.389,7.269,67.775l4.933-2.12C8.033,55.646,8.187,44.882,11.821,35.463z"/><path xmlns="http://www.w3.org/2000/svg" d="M33.217,12.967l-2.12-4.934C19.807,13.018,11.51,22.007,7.157,32.612l5.005,1.996  C16.007,25.274,23.305,17.359,33.217,12.967z"/><path xmlns="http://www.w3.org/2000/svg" d="M64.254,12.223l1.997-5.005C55.561,3.077,43.328,2.91,31.943,7.67l2.12,4.934C44.071,8.435,54.835,8.588,64.254,12.223z"/><path xmlns="http://www.w3.org/2000/svg" d="M35.744,86.188c8.98,3.46,19.241,3.605,28.782-0.363L49.673,51.263L35.744,86.188z M46.19,84.062  c-1.684,1.286-4.091,0.963-5.377-0.721c-1.285-1.684-0.963-4.091,0.721-5.377c1.683-1.284,4.091-0.962,5.375,0.721  C48.196,80.37,47.874,82.775,46.19,84.062z M46.339,72.75c-1.286-1.683-0.962-4.087,0.721-5.375c1.683-1.286,4.09-0.963,5.375,0.72  c1.287,1.685,0.965,4.092-0.719,5.377C50.032,74.757,47.625,74.436,46.339,72.75z M58.648,84.2c-1.684,1.285-4.09,0.964-5.375-0.721  c-1.286-1.683-0.964-4.09,0.721-5.376c1.683-1.284,4.089-0.963,5.374,0.721C60.655,80.508,60.333,82.915,58.648,84.2z"/><path xmlns="http://www.w3.org/2000/svg" d="M56.498,43.198l34.561-14.852C86.868,18.9,79.323,11.943,70.427,8.273L56.498,43.198z M70.74,33.651  c-1.982,0.751-4.195-0.249-4.945-2.23c-0.748-1.981,0.251-4.195,2.232-4.944c1.981-0.75,4.194,0.25,4.944,2.232  C73.72,30.69,72.722,32.902,70.74,33.651z M85.238,25.142c0.748,1.981-0.251,4.194-2.231,4.943c-1.982,0.75-4.195-0.25-4.946-2.23  c-0.747-1.982,0.251-4.196,2.233-4.945C82.275,22.161,84.488,23.16,85.238,25.142z M74.444,21.755  c-1.982,0.75-4.193-0.25-4.943-2.231c-0.751-1.981,0.25-4.195,2.231-4.944s4.195,0.25,4.944,2.232  C77.426,18.793,76.425,21.006,74.444,21.755z"/><path xmlns="http://www.w3.org/2000/svg" d="M92.75,27.619l4.934-2.12C92.7,14.208,83.711,5.912,73.105,1.559l-1.996,5.004C80.443,10.409,88.358,17.707,92.75,27.619z"/><path xmlns="http://www.w3.org/2000/svg" d="M85.785,63.975c3.461-8.98,3.605-19.241-0.362-28.782L50.861,50.044L85.785,63.975z M76.314,42.001  c0.937-1.901,3.236-2.682,5.137-1.745c1.9,0.937,2.681,3.235,1.746,5.137c-0.938,1.9-3.237,2.681-5.137,1.744  C76.16,46.202,75.379,43.902,76.314,42.001z M81.212,52.2c1.9,0.936,2.681,3.233,1.744,5.136c-0.938,1.9-3.235,2.681-5.136,1.745  c-1.9-0.937-2.682-3.235-1.747-5.136C77.011,52.045,79.31,51.263,81.212,52.2z M70.229,45.673c1.902,0.935,2.683,3.235,1.747,5.137  c-0.938,1.899-3.236,2.68-5.135,1.743c-1.904-0.936-2.684-3.235-1.747-5.135C66.031,45.518,68.329,44.736,70.229,45.673z"/><path xmlns="http://www.w3.org/2000/svg" d="M65.372,85.461c9.445-4.191,16.402-11.735,20.072-20.631L50.52,50.898L65.372,85.461z M74.408,63.249  c1.979-0.756,4.196,0.237,4.952,2.216c0.755,1.98-0.238,4.196-2.217,4.951c-1.98,0.756-4.196-0.238-4.95-2.217  C71.437,66.22,72.429,64.005,74.408,63.249z M62.501,59.579c1.979-0.756,4.196,0.238,4.95,2.219c0.756,1.979-0.237,4.194-2.216,4.95  c-1.979,0.753-4.195-0.238-4.95-2.218C59.529,62.551,60.522,60.334,62.501,59.579z M66.103,71.834  c1.979-0.754,4.196,0.237,4.952,2.219c0.757,1.979-0.237,4.194-2.216,4.95c-1.98,0.753-4.195-0.239-4.95-2.217  C63.133,74.806,64.125,72.591,66.103,71.834z"/><path xmlns="http://www.w3.org/2000/svg" d="M35.062,87.896l-1.996,5.005c10.689,4.142,22.922,4.31,34.308-0.452l-2.12-4.934C55.245,91.684,44.48,91.53,35.062,87.896z"/><path xmlns="http://www.w3.org/2000/svg" d="M33.944,14.659C24.498,18.85,17.542,26.394,13.872,35.29l34.924,13.93L33.944,14.659z M25.689,36.676  c-1.974,0.769-4.198-0.206-4.968-2.18c-0.77-1.974,0.206-4.198,2.18-4.967c1.974-0.77,4.197,0.206,4.967,2.179  C28.638,33.682,27.663,35.906,25.689,36.676z M37.624,40.255c-1.974,0.77-4.198-0.206-4.968-2.18  c-0.77-1.974,0.206-4.197,2.181-4.967c1.973-0.77,4.196,0.206,4.966,2.18C40.573,37.262,39.597,39.486,37.624,40.255z M33.93,28.027  c-1.974,0.77-4.198-0.206-4.968-2.18c-0.77-1.973,0.207-4.197,2.18-4.967c1.973-0.77,4.197,0.206,4.967,2.18  S35.903,27.257,33.93,28.027z"/><path xmlns="http://www.w3.org/2000/svg" d="M66.099,87.152l2.12,4.934c11.29-4.983,19.587-13.973,23.94-24.578l-5.005-1.996C83.308,74.846,76.011,82.761,66.099,87.152  z"/><path xmlns="http://www.w3.org/2000/svg" d="M87.113,34.465c4.168,10.008,4.016,20.773,0.382,30.191l5.005,1.997c4.141-10.69,4.309-22.923-0.452-34.308L87.113,34.465z"/><path xmlns="http://www.w3.org/2000/svg" d="M13.53,36.145c-3.46,8.98-3.605,19.241,0.363,28.783l34.562-14.852L13.53,36.145z M22.148,58.113  c-0.992,1.872-3.312,2.587-5.185,1.596c-1.873-0.992-2.587-3.312-1.596-5.186c0.992-1.871,3.312-2.586,5.185-1.595  C22.424,53.919,23.139,56.241,22.148,58.113z M22.736,46.182c-0.991,1.873-3.312,2.587-5.185,1.596s-2.587-3.312-1.595-5.185  c0.991-1.873,3.312-2.586,5.184-1.596C23.012,41.989,23.727,44.31,22.736,46.182z M33.522,53.024  c-0.991,1.873-3.312,2.588-5.185,1.597c-1.873-0.992-2.587-3.312-1.595-5.185c0.991-1.873,3.312-2.586,5.184-1.595  C33.799,48.832,34.513,51.153,33.522,53.024z"/><path xmlns="http://www.w3.org/2000/svg" d="M63.571,13.932c-8.979-3.46-19.24-3.605-28.781,0.363l14.852,34.562L63.571,13.932z M51.848,18.379  c0.9-1.917,3.184-2.742,5.103-1.842c1.917,0.9,2.741,3.184,1.841,5.102c-0.9,1.918-3.183,2.743-5.102,1.844  C51.772,22.582,50.947,20.298,51.848,18.379z M52.475,32.741c-0.9,1.918-3.185,2.743-5.103,1.842  c-1.917-0.901-2.742-3.185-1.842-5.102s3.184-2.742,5.102-1.842C52.549,28.54,53.374,30.824,52.475,32.741z M45.005,16.522  c1.917,0.9,2.742,3.185,1.842,5.102c-0.9,1.918-3.184,2.743-5.102,1.843c-1.917-0.9-2.743-3.185-1.842-5.103  C40.803,16.448,43.086,15.623,45.005,16.522z"/><path xmlns="http://www.w3.org/2000/svg" d="M12.565,66.501l-4.934,2.12c4.984,11.289,13.974,19.587,24.579,23.94l1.996-5.007C24.873,83.71,16.957,76.413,12.565,66.501  z"/></g><g id="SvgjsG2276" featurekey="n48U4P-0" transform="matrix(3.303801174763304,0,0,3.303801174763304,107.44075557611177,4.102259548894139)" fill="#000000"><path d="M7.5 5.720000000000001 c2.0266 0 3.62 0.62666 4.78 1.88 s1.74 2.98 1.74 5.18 c0 2.28 -0.58334 4.0534 -1.75 5.32 s-2.73 1.9 -4.69 1.9 l-6.2 0 l0 -14.28 l6.12 0 z M7.3 17.36 c1.1333 0 2.0134 -0.37334 2.64 -1.12 s0.94 -1.8067 0.94 -3.18 c0 -1.5733 -0.33666 -2.75 -1.01 -3.53 s-1.71 -1.17 -3.11 -1.17 l-2.24 0 l0 9 l2.78 0 z M20.68 9.38 c0.97334 0 1.84 0.22664 2.6 0.67998 s1.3567 1.11 1.79 1.97 s0.65 1.85 0.65 2.97 c0 0.10666 -0.0066602 0.28 -0.02 0.52 l-7.46 0 c0.02666 0.82666 0.24332 1.47 0.64998 1.93 s1.03 0.69 1.87 0.69 c0.52 0 0.99666 -0.13 1.43 -0.39 s0.71 -0.57666 0.83 -0.95 l2.5 0 c-0.73334 2.32 -2.3466 3.48 -4.84 3.48 c-0.94666 -0.01334 -1.8233 -0.22 -2.63 -0.62 s-1.45 -1.0233 -1.93 -1.87 s-0.72 -1.83 -0.72 -2.95 c0 -1.0533 0.24334 -2.0134 0.73 -2.88 s1.1333 -1.5133 1.94 -1.94 s1.6767 -0.64 2.61 -0.64 z M22.86 13.719999999999999 c-0.13334 -0.77334 -0.38 -1.3333 -0.74 -1.68 s-0.87334 -0.52 -1.54 -0.52 c-0.69334 0 -1.24 0.19666 -1.64 0.59 s-0.63334 0.93 -0.7 1.61 l4.62 0 z M29.380000000000003 9.66 l2.18 7.06 l0.04 0 l2.18 -7.06 l2.82 0 l-3.5 10.34 l-3.16 0 l-3.54 -10.34 l2.98 0 z M44.2 5.720000000000001 c2.0266 0 3.62 0.62666 4.78 1.88 s1.74 2.98 1.74 5.18 c0 2.28 -0.58334 4.0534 -1.75 5.32 s-2.73 1.9 -4.69 1.9 l-6.2 0 l0 -14.28 l6.12 0 z M44 17.36 c1.1333 0 2.0134 -0.37334 2.64 -1.12 s0.94 -1.8067 0.94 -3.18 c0 -1.5733 -0.33666 -2.75 -1.01 -3.53 s-1.71 -1.17 -3.11 -1.17 l-2.24 0 l0 9 l2.78 0 z M55.52 5.720000000000001 l0 2.34 l-2.84 0 l0 -2.34 l2.84 0 z M55.52 9.66 l0 10.34 l-2.84 0 l0 -10.34 l2.84 0 z M63.7 9.38 c1.32 0 2.2766 0.33338 2.87 1 s0.89 1.7267 0.89 3.18 l0 6.44 l-2.84 0 l0 -5.86 c0 -0.85334 -0.13666 -1.4867 -0.41 -1.9 s-0.74334 -0.62 -1.41 -0.62 c-0.77334 0 -1.3333 0.23334 -1.68 0.7 s-0.52 1.2333 -0.52 2.3 l0 5.38 l-2.84 0 l0 -10.34 l2.7 0 l0 1.44 l0.06 0 c0.70666 -1.1467 1.7667 -1.72 3.18 -1.72 z M74.4 9.38 c0.97334 0 1.84 0.22664 2.6 0.67998 s1.3567 1.11 1.79 1.97 s0.65 1.85 0.65 2.97 c0 0.10666 -0.0066602 0.28 -0.02 0.52 l-7.46 0 c0.02666 0.82666 0.24332 1.47 0.64998 1.93 s1.03 0.69 1.87 0.69 c0.52 0 0.99666 -0.13 1.43 -0.39 s0.71 -0.57666 0.83 -0.95 l2.5 0 c-0.73334 2.32 -2.3466 3.48 -4.84 3.48 c-0.94666 -0.01334 -1.8233 -0.22 -2.63 -0.62 s-1.45 -1.0233 -1.93 -1.87 s-0.72 -1.83 -0.72 -2.95 c0 -1.0533 0.24334 -2.0134 0.73 -2.88 s1.1333 -1.5133 1.94 -1.94 s1.6767 -0.64 2.61 -0.64 z M76.58000000000001 13.719999999999999 c-0.13334 -0.77334 -0.38 -1.3333 -0.74 -1.68 s-0.87334 -0.52 -1.54 -0.52 c-0.69334 0 -1.24 0.19666 -1.64 0.59 s-0.63334 0.93 -0.7 1.61 l4.62 0 z"/></g></svg>